# xmcd CD database file
#
# Track frame offsets:
#	150
#	21577
#	37773
#	61664
#	78978
#	102002
#	123886
#	145374
#	163790
#	185163
#	210161
#	227821
#	249310
#
# Disc length: 3620 seconds
#
# Revision: 0
# Processed by: cddbd v1.5.1PL0 Copyright (c) Steve Scherf et al.
# Submitted via: CDex 1.51
#
DISCID=a30e220d
DTITLE=ゴスペラーズ - G10 DISC 1
DYEAR=2004
DGENRE=J-Pop
TTITLE0=Promise−a cappella−
TTITLE1=侍ゴスペラーズ
TTITLE2=Atlas
TTITLE3=終わらない世界
TTITLE4=愛の歌
TTITLE5=靴は履いたまま
TTITLE6=あたらしい世界
TTITLE7=熱帯夜
TTITLE8=シークレット
TTITLE9=永遠に
TTITLE10=月光
TTITLE11=One more day
TTITLE12=告白
EXTD=YEAR: 2004
EXTT0=
EXTT1=
EXTT2=
EXTT3=
EXTT4=
EXTT5=
EXTT6=
EXTT7=
EXTT8=
EXTT9=
EXTT10=
EXTT11=
EXTT12=
PLAYORDER=
